<svg width="1049" height="374" viewBox="0 0 1049 374" fill="none" xmlns="http://www.w3.org/2000/svg">
<g clip-path="url(#clip0_3532_1514)">
<path d="M62.2207 20.74C62.2207 9.29 71.5007 0 82.9607 0H163.841C175.291 0 184.581 9.29 184.581 20.74C184.581 32.19 175.291 41.48 163.841 41.48H82.9607C71.5007 41.48 62.2207 32.19 62.2207 20.74Z" fill="url(#paint0_linear_3532_1514)"/>
<path d="M14.5195 76.0408C14.5195 64.5908 23.8095 55.3008 35.2595 55.3008H190.8C202.25 55.3008 211.54 64.5908 211.54 76.0408C211.54 87.4908 202.25 96.7808 190.8 96.7808H35.2595C23.7995 96.7808 14.5195 87.5008 14.5195 76.0408Z" fill="url(#paint1_linear_3532_1514)"/>
<path d="M127.199 131.349C127.199 119.899 136.489 110.609 147.939 110.609H266.159C277.609 110.609 286.899 119.899 286.899 131.349C286.899 142.799 277.609 152.089 266.159 152.089H147.939C136.489 152.089 127.199 142.809 127.199 131.349Z" fill="url(#paint2_linear_3532_1514)"/>
<path d="M55.3008 186.66C55.3008 175.21 64.5908 165.92 76.0408 165.92H170.061C181.511 165.92 190.801 175.21 190.801 186.66C190.801 198.11 181.511 207.4 170.061 207.4H76.0408C64.5908 207.4 55.3008 198.11 55.3008 186.66Z" fill="url(#paint3_linear_3532_1514)"/>
<path d="M259.939 186.66C259.939 175.21 269.229 165.92 280.679 165.92H326.999C338.449 165.92 347.739 175.21 347.739 186.66C347.739 198.11 338.449 207.4 326.999 207.4H280.679C269.219 207.4 259.939 198.11 259.939 186.66Z" fill="url(#paint4_linear_3532_1514)"/>
<path d="M242.65 241.961C242.65 230.511 251.94 221.221 263.39 221.221H309.71C321.16 221.221 330.45 230.511 330.45 241.961C330.45 253.411 321.16 262.701 309.71 262.701H263.39C251.94 262.701 242.65 253.411 242.65 241.961Z" fill="url(#paint5_linear_3532_1514)"/>
<path d="M135.5 297.269C135.5 285.819 144.79 276.529 156.24 276.529H221.22C232.67 276.529 241.96 285.819 241.96 297.269C241.96 308.719 232.67 318.009 221.22 318.009H156.24C144.78 318.009 135.5 308.719 135.5 297.269Z" fill="url(#paint6_linear_3532_1514)"/>
<path d="M20.74 110.609C32.19 110.609 41.48 119.899 41.48 131.349V352.569C41.48 364.019 32.19 373.309 20.74 373.309C9.29 373.309 0 364.029 0 352.579V131.359C0 119.899 9.29 110.609 20.74 110.609Z" fill="url(#paint7_linear_3532_1514)"/>
<path d="M153.471 241.961C153.471 230.511 162.761 221.221 174.211 221.221H208.081C219.531 221.221 228.821 230.511 228.821 241.961C228.821 253.411 219.531 262.701 208.081 262.701H174.211C162.761 262.701 153.471 253.411 153.471 241.961Z" fill="url(#paint8_linear_3532_1514)"/>
<path d="M55.3008 352.57C55.3008 341.12 64.5908 331.83 76.0408 331.83H141.021C152.471 331.83 161.761 341.12 161.761 352.57C161.761 364.02 152.471 373.31 141.021 373.31H76.0408C64.5908 373.31 55.3008 364.03 55.3008 352.57Z" fill="url(#paint9_linear_3532_1514)"/>
<path d="M204.631 186.66C204.631 175.21 213.921 165.92 225.371 165.92C236.821 165.92 246.111 175.21 246.111 186.66C246.111 198.11 236.821 207.4 225.371 207.4C213.911 207.4 204.631 198.11 204.631 186.66Z" fill="url(#paint10_linear_3532_1514)"/>
<path d="M225.369 76.0408C225.369 64.5908 234.659 55.3008 246.109 55.3008H292.429C303.879 55.3008 313.169 64.5908 313.169 76.0408C313.169 87.4908 303.879 96.7808 292.429 96.7808H246.109C234.659 96.7808 225.369 87.5008 225.369 76.0408Z" fill="url(#paint11_linear_3532_1514)"/>
<path d="M198.41 20.74C198.41 9.29 207.7 0 219.15 0C230.6 0 239.89 9.29 239.89 20.74C239.89 32.19 230.6 41.48 219.15 41.48C207.7 41.48 198.41 32.19 198.41 20.74Z" fill="url(#paint12_linear_3532_1514)"/>
<path d="M55.3008 131.349C55.3008 119.899 64.5908 110.609 76.0408 110.609H92.6308C104.081 110.609 113.371 119.899 113.371 131.349C113.371 142.799 104.081 152.089 92.6308 152.089H76.0408C64.5908 152.089 55.3008 142.809 55.3008 131.349Z" fill="url(#paint13_linear_3532_1514)"/>
<path d="M300.721 131.349C300.721 119.899 310.011 110.609 321.461 110.609C332.911 110.609 342.201 119.899 342.201 131.349C342.201 142.799 332.911 152.089 321.461 152.089C310.011 152.089 300.721 142.809 300.721 131.349Z" fill="url(#paint14_linear_3532_1514)"/>
<path d="M255.789 297.269C255.789 285.819 265.079 276.529 276.529 276.529C287.979 276.529 297.269 285.819 297.269 297.269C297.269 308.719 287.979 318.009 276.529 318.009C265.069 318.009 255.789 308.719 255.789 297.269Z" fill="url(#paint15_linear_3532_1514)"/>
<path d="M176.98 352.57C176.98 341.12 186.27 331.83 197.72 331.83C209.17 331.83 218.46 341.12 218.46 352.57C218.46 364.02 209.17 373.31 197.72 373.31C186.26 373.31 176.98 364.03 176.98 352.57Z" fill="url(#paint16_linear_3532_1514)"/>
<path d="M475.07 180.41C466.32 180.41 458.52 178.58 451.68 174.92C444.84 171.1 439.42 165.93 435.45 159.41C431.63 152.89 429.72 145.49 429.72 137.21V104.27C429.72 95.9997 431.71 88.5997 435.69 82.0697C439.67 75.5497 445.08 70.4497 451.92 66.7897C458.76 62.9697 466.48 61.0597 475.07 61.0597C485.41 61.0597 494.72 63.7697 503 69.1797C511.43 74.4297 518.04 81.5897 522.81 90.6597C527.74 99.5697 530.21 109.68 530.21 120.97C530.21 132.11 527.74 142.21 522.81 151.28C518.04 160.19 511.43 167.27 503 172.52C494.73 177.79 485.42 180.41 475.07 180.41ZM470.78 155.59C477.14 155.59 482.71 154.16 487.49 151.29C492.43 148.27 496.24 144.13 498.95 138.88C501.81 133.63 503.25 127.58 503.25 120.74C503.25 113.9 501.82 107.85 498.95 102.6C496.25 97.3497 492.43 93.2897 487.49 90.4297C482.72 87.4097 477.15 85.8997 470.78 85.8997C464.42 85.8997 458.76 87.4097 453.83 90.4297C448.9 93.2897 445.08 97.3497 442.37 102.6C439.66 107.85 438.31 113.9 438.31 120.74C438.31 127.58 439.66 133.63 442.37 138.88C445.08 144.13 448.9 148.27 453.83 151.29C458.76 154.16 464.42 155.59 470.78 155.59ZM413.74 178.03V6.17969H439.99V91.6297L435.45 119.32L439.99 147.25V178.04H413.74V178.03Z" fill="white"/>
<path d="M599.93 180.41C588.79 180.41 578.69 177.78 569.62 172.53C560.55 167.12 553.31 159.88 547.9 150.81C542.65 141.74 540.02 131.64 540.02 120.5C540.02 109.36 542.65 99.3403 547.9 90.4303C553.31 81.5203 560.55 74.4403 569.62 69.1903C578.69 63.7803 588.79 61.0703 599.93 61.0703C611.23 61.0703 621.409 63.7003 630.479 68.9503C639.549 74.2003 646.71 81.3603 651.96 90.4303C657.37 99.3403 660.08 109.37 660.08 120.5C660.08 131.64 657.37 141.74 651.96 150.81C646.71 159.88 639.549 167.12 630.479 172.53C621.409 177.79 611.22 180.41 599.93 180.41ZM599.93 155.11C606.45 155.11 612.179 153.68 617.109 150.81C622.199 147.79 626.1 143.65 628.81 138.4C631.67 133.15 633.109 127.18 633.109 120.5C633.109 113.82 631.68 107.93 628.81 102.84C625.95 97.7503 622.049 93.7703 617.109 90.9103C612.179 87.8903 606.45 86.3803 599.93 86.3803C593.57 86.3803 587.83 87.8903 582.74 90.9103C577.81 93.7703 573.909 97.7503 571.039 102.84C568.339 107.93 566.979 113.82 566.979 120.5C566.979 127.18 568.339 133.15 571.039 138.4C573.899 143.65 577.8 147.79 582.74 150.81C587.83 153.68 593.56 155.11 599.93 155.11Z" fill="white"/>
<path d="M755.661 178.03V111.92C755.661 104.28 753.191 98.0003 748.261 93.0603C743.491 88.1303 737.281 85.6603 729.641 85.6603C724.551 85.6603 720.011 86.7703 716.031 89.0003C712.051 91.2303 708.951 94.3303 706.721 98.3103C704.491 102.29 703.381 106.82 703.381 111.91L693.111 106.18C693.111 97.4303 695.021 89.7103 698.841 83.0303C702.661 76.1903 707.911 70.8603 714.591 67.0403C721.431 63.0603 729.071 61.0703 737.501 61.0703C746.091 61.0703 753.731 63.3003 760.411 67.7503C767.091 72.0503 772.341 77.6903 776.161 84.7003C779.981 91.5403 781.891 98.7003 781.891 106.18V178.02H755.661V178.03ZM677.131 178.03V63.4603H703.381V178.03H677.131Z" fill="white"/>
<path d="M851.56 228.151C839.46 228.151 828.89 225.921 819.81 221.471C810.74 217.171 803.42 211.051 797.85 203.091L815.03 185.911C819.64 191.641 824.9 195.931 830.78 198.801C836.67 201.661 843.75 203.101 852.02 203.101C862.36 203.101 870.55 200.401 876.6 194.991C882.65 189.741 885.67 182.501 885.67 173.271V145.111L890.21 119.811L885.67 94.2705V63.4605H911.92V173.251C911.92 184.231 909.37 193.781 904.28 201.891C899.19 210.161 892.11 216.611 883.04 221.221C873.99 225.841 863.49 228.151 851.56 228.151ZM850.36 175.641C840.18 175.641 830.95 173.171 822.67 168.241C814.55 163.151 808.11 156.231 803.34 147.471C798.73 138.721 796.42 128.931 796.42 118.111C796.42 107.291 798.73 97.5805 803.34 88.9905C808.11 80.4005 814.56 73.6305 822.67 68.7005C830.95 63.6105 840.17 61.0605 850.36 61.0605C859.43 61.0605 867.39 62.8905 874.23 66.5505C881.07 70.2105 886.4 75.3005 890.22 81.8305C894.04 88.1905 895.95 95.6705 895.95 104.271V132.431C895.95 140.861 893.96 148.341 889.98 154.871C886.16 161.391 880.83 166.491 873.99 170.151C867.15 173.811 859.27 175.641 850.36 175.641ZM855.61 150.821C861.97 150.821 867.54 149.471 872.32 146.761C877.09 144.051 880.75 140.321 883.3 135.541C886.01 130.611 887.36 124.881 887.36 118.351C887.36 111.831 886.01 106.181 883.3 101.401C880.75 96.4705 877.1 92.6505 872.32 89.9405C867.55 87.2405 861.98 85.8805 855.61 85.8805C849.24 85.8805 843.6 87.2305 838.66 89.9405C833.89 92.6405 830.15 96.4605 827.44 101.401C824.73 106.171 823.38 111.821 823.38 118.351C823.38 124.711 824.73 130.361 827.44 135.301C830.15 140.231 833.88 144.051 838.66 146.761C843.6 149.461 849.25 150.821 855.61 150.821Z" fill="white"/>
<path d="M988.84 180.41C977.7 180.41 967.6 177.78 958.53 172.53C949.46 167.12 942.22 159.88 936.81 150.81C931.56 141.74 928.93 131.64 928.93 120.5C928.93 109.36 931.55 99.3403 936.81 90.4303C942.22 81.5203 949.46 74.4403 958.53 69.1903C967.6 63.7803 977.7 61.0703 988.84 61.0703C1000.14 61.0703 1010.32 63.7003 1019.39 68.9503C1028.46 74.2003 1035.62 81.3603 1040.87 90.4303C1046.28 99.3403 1048.99 109.37 1048.99 120.5C1048.99 131.64 1046.29 141.74 1040.87 150.81C1035.62 159.88 1028.46 167.12 1019.39 172.53C1010.32 177.79 1000.14 180.41 988.84 180.41ZM988.84 155.11C995.37 155.11 1001.09 153.68 1006.03 150.81C1011.12 147.79 1015.02 143.65 1017.72 138.4C1020.59 133.15 1022.02 127.18 1022.02 120.5C1022.02 113.82 1020.59 107.93 1017.72 102.84C1014.86 97.7503 1010.96 93.7703 1006.03 90.9103C1001.09 87.8903 995.37 86.3803 988.84 86.3803C982.48 86.3803 976.75 87.8903 971.66 90.9103C966.72 93.7703 962.83 97.7503 959.96 102.84C957.25 107.93 955.9 113.82 955.9 120.5C955.9 127.18 957.25 133.15 959.96 138.4C962.82 143.65 966.72 147.79 971.66 150.81C976.75 153.68 982.48 155.11 988.84 155.11Z" fill="white"/>
<path d="M443.091 363.21V326.45H483.661C493.211 326.45 501.481 324.62 508.481 320.96C515.641 317.3 521.131 311.89 524.951 304.73C528.771 297.41 530.681 288.58 530.681 278.24C530.681 268.06 528.691 259.46 524.711 252.46C520.891 245.3 515.481 239.89 508.481 236.23C501.481 232.57 493.201 230.74 483.661 230.74H441.171V193.98H483.891C496.941 193.98 508.951 196.05 519.931 200.19C530.911 204.17 540.451 209.9 548.571 217.38C556.691 224.86 562.971 233.77 567.431 244.11C572.041 254.45 574.351 265.91 574.351 278.48C574.351 291.21 572.041 302.75 567.431 313.09C562.981 323.43 556.691 332.34 548.571 339.82C540.451 347.3 530.911 353.11 519.931 357.24C509.111 361.22 497.261 363.21 484.371 363.21H443.091ZM414.211 363.21V193.99H456.931V363.22H414.211V363.21Z" fill="white"/>
<path d="M647.099 365.841C634.049 365.841 622.51 363.291 612.49 358.201C602.46 352.951 594.589 345.711 588.859 336.481C583.129 327.251 580.27 316.671 580.27 304.741C580.27 292.961 583.05 282.541 588.62 273.471C594.19 264.241 601.749 257.001 611.289 251.751C620.999 246.341 631.9 243.641 643.99 243.641C655.77 243.641 666.19 246.191 675.26 251.281C684.49 256.211 691.65 263.131 696.74 272.051C701.99 280.801 704.62 290.831 704.62 302.121C704.62 304.511 704.46 306.971 704.14 309.521C703.98 311.911 703.5 314.691 702.71 317.871L599.84 318.351V291.621L686.24 290.901L667.62 302.601C667.46 296.081 666.51 290.751 664.76 286.611C663.01 282.311 660.46 279.051 657.12 276.821C653.78 274.591 649.559 273.481 644.469 273.481C639.219 273.481 634.69 274.751 630.87 277.301C627.05 279.851 624.109 283.431 622.039 288.041C619.969 292.651 618.94 298.221 618.94 304.751C618.94 311.431 620.05 317.161 622.28 321.931C624.51 326.541 627.69 330.051 631.83 332.431C635.97 334.821 641.059 336.011 647.109 336.011C652.839 336.011 657.85 335.061 662.15 333.151C666.6 331.241 670.58 328.301 674.08 324.321L695.799 346.041C690.069 352.561 683.069 357.501 674.789 360.841C666.679 364.171 657.439 365.841 647.099 365.841Z" fill="white"/>
<path d="M748.76 363.21L701.26 246.49H745.65L775.96 344.83H759.02L789.09 246.49H833.01L785.51 362.97L748.76 363.21Z" fill="white"/>
</g>
<defs>
<linearGradient id="paint0_linear_3532_1514" x1="279.63" y1="-135.491" x2="-93.0498" y2="237.189" gradientUnits="userSpaceOnUse">
<stop stop-color="#EC5899"/>
<stop offset="0.2427" stop-color="#B752BB"/>
<stop offset="0.4852" stop-color="#8A4DD8"/>
<stop offset="0.6999" stop-color="#6949ED"/>
<stop offset="0.8789" stop-color="#5547FA"/>
<stop offset="1" stop-color="#4E46FF"/>
</linearGradient>
<linearGradient id="paint1_linear_3532_1514" x1="302.096" y1="-113.023" x2="-70.584" y2="259.657" gradientUnits="userSpaceOnUse">
<stop stop-color="#EC5899"/>
<stop offset="0.2427" stop-color="#B752BB"/>
<stop offset="0.4852" stop-color="#8A4DD8"/>
<stop offset="0.6999" stop-color="#6949ED"/>
<stop offset="0.8789" stop-color="#5547FA"/>
<stop offset="1" stop-color="#4E46FF"/>
</linearGradient>
<linearGradient id="paint2_linear_3532_1514" x1="376.761" y1="-38.3585" x2="4.08135" y2="334.321" gradientUnits="userSpaceOnUse">
<stop stop-color="#EC5899"/>
<stop offset="0.2427" stop-color="#B752BB"/>
<stop offset="0.4852" stop-color="#8A4DD8"/>
<stop offset="0.6999" stop-color="#6949ED"/>
<stop offset="0.8789" stop-color="#5547FA"/>
<stop offset="1" stop-color="#4E46FF"/>
</linearGradient>
<linearGradient id="paint3_linear_3532_1514" x1="362.416" y1="-52.7044" x2="-10.2634" y2="319.975" gradientUnits="userSpaceOnUse">
<stop offset="0.110176" stop-color="#B752BB"/>
<stop offset="0.217507" stop-color="#8A4DD8"/>
<stop offset="0.504616" stop-color="#6949ED"/>
<stop offset="0.8789" stop-color="#5547FA"/>
<stop offset="1" stop-color="#4E46FF"/>
</linearGradient>
<linearGradient id="paint4_linear_3532_1514" x1="452.805" y1="37.686" x2="80.1256" y2="410.366" gradientUnits="userSpaceOnUse">
<stop stop-color="#EC5899"/>
<stop offset="0.2427" stop-color="#B752BB"/>
<stop offset="0.4852" stop-color="#8A4DD8"/>
<stop offset="0.6999" stop-color="#6949ED"/>
<stop offset="0.8789" stop-color="#5547FA"/>
<stop offset="1" stop-color="#4E46FF"/>
</linearGradient>
<linearGradient id="paint5_linear_3532_1514" x1="471.817" y1="56.6975" x2="99.1371" y2="429.377" gradientUnits="userSpaceOnUse">
<stop stop-color="#EC5899"/>
<stop offset="0.2427" stop-color="#B752BB"/>
<stop offset="0.4852" stop-color="#8A4DD8"/>
<stop offset="0.6999" stop-color="#6949ED"/>
<stop offset="0.8789" stop-color="#5547FA"/>
<stop offset="1" stop-color="#4E46FF"/>
</linearGradient>
<linearGradient id="paint6_linear_3532_1514" x1="450.56" y1="35.4396" x2="77.8804" y2="408.119" gradientUnits="userSpaceOnUse">
<stop stop-color="#B752BB"/>
<stop offset="0.150425" stop-color="#8A4DD8"/>
<stop offset="0.298005" stop-color="#6949ED"/>
<stop offset="0.657563" stop-color="#5547FA"/>
<stop offset="0.848075" stop-color="#4E46FF"/>
</linearGradient>
<linearGradient id="paint7_linear_3532_1514" x1="338.912" y1="-76.2085" x2="-33.7679" y2="296.471" gradientUnits="userSpaceOnUse">
<stop stop-color="#B752BB"/>
<stop offset="0.190673" stop-color="#8A4DD8"/>
<stop offset="0.544865" stop-color="#6949ED"/>
<stop offset="0.786359" stop-color="#5547FA"/>
<stop offset="1" stop-color="#4E46FF"/>
</linearGradient>
<linearGradient id="paint8_linear_3532_1514" x1="424.115" y1="8.99573" x2="51.4357" y2="381.675" gradientUnits="userSpaceOnUse">
<stop stop-color="#B752BB"/>
<stop offset="0.169207" stop-color="#8A4DD8"/>
<stop offset="0.386551" stop-color="#6949ED"/>
<stop offset="0.791725" stop-color="#5547FA"/>
<stop offset="0.990287" stop-color="#4E46FF"/>
</linearGradient>
<linearGradient id="paint9_linear_3532_1514" x1="438.116" y1="22.9954" x2="65.4362" y2="395.675" gradientUnits="userSpaceOnUse">
<stop stop-color="#EC5899"/>
<stop offset="0.2427" stop-color="#B752BB"/>
<stop offset="0.4852" stop-color="#8A4DD8"/>
<stop offset="0.6999" stop-color="#6949ED"/>
<stop offset="0.8789" stop-color="#5547FA"/>
<stop offset="1" stop-color="#4E46FF"/>
</linearGradient>
<linearGradient id="paint10_linear_3532_1514" x1="413.573" y1="-1.54706" x2="40.8939" y2="371.133" gradientUnits="userSpaceOnUse">
<stop stop-color="#EC5899"/>
<stop offset="0.2427" stop-color="#B752BB"/>
<stop offset="0.4852" stop-color="#8A4DD8"/>
<stop offset="0.6999" stop-color="#6949ED"/>
<stop offset="0.8789" stop-color="#5547FA"/>
<stop offset="1" stop-color="#4E46FF"/>
</linearGradient>
<linearGradient id="paint11_linear_3532_1514" x1="380.215" y1="-34.9028" x2="7.53569" y2="337.777" gradientUnits="userSpaceOnUse">
<stop stop-color="#EC5899"/>
<stop offset="0.2427" stop-color="#B752BB"/>
<stop offset="0.4852" stop-color="#8A4DD8"/>
<stop offset="0.6999" stop-color="#6949ED"/>
<stop offset="0.8789" stop-color="#5547FA"/>
<stop offset="1" stop-color="#4E46FF"/>
</linearGradient>
<linearGradient id="paint12_linear_3532_1514" x1="327.505" y1="-87.6152" x2="-45.1751" y2="285.064" gradientUnits="userSpaceOnUse">
<stop stop-color="#EC5899"/>
<stop offset="0.2427" stop-color="#B752BB"/>
<stop offset="0.4852" stop-color="#8A4DD8"/>
<stop offset="0.6999" stop-color="#6949ED"/>
<stop offset="0.8789" stop-color="#5547FA"/>
<stop offset="1" stop-color="#4E46FF"/>
</linearGradient>
<linearGradient id="paint13_linear_3532_1514" x1="315.408" y1="-99.7135" x2="-57.272" y2="272.966" gradientUnits="userSpaceOnUse">
<stop stop-color="#EC5899"/>
<stop offset="0.2427" stop-color="#B752BB"/>
<stop offset="0.4852" stop-color="#8A4DD8"/>
<stop offset="0.6999" stop-color="#6949ED"/>
<stop offset="0.8789" stop-color="#5547FA"/>
<stop offset="1" stop-color="#4E46FF"/>
</linearGradient>
<linearGradient id="paint14_linear_3532_1514" x1="433.969" y1="18.8484" x2="61.2899" y2="391.528" gradientUnits="userSpaceOnUse">
<stop stop-color="#EC5899"/>
<stop offset="0.2427" stop-color="#B752BB"/>
<stop offset="0.4852" stop-color="#8A4DD8"/>
<stop offset="0.6999" stop-color="#6949ED"/>
<stop offset="0.8789" stop-color="#5547FA"/>
<stop offset="1" stop-color="#4E46FF"/>
</linearGradient>
<linearGradient id="paint15_linear_3532_1514" x1="494.459" y1="79.3391" x2="121.779" y2="452.019" gradientUnits="userSpaceOnUse">
<stop stop-color="#EC5899"/>
<stop offset="0.2427" stop-color="#B752BB"/>
<stop offset="0.4852" stop-color="#8A4DD8"/>
<stop offset="0.6999" stop-color="#6949ED"/>
<stop offset="0.8789" stop-color="#5547FA"/>
<stop offset="1" stop-color="#4E46FF"/>
</linearGradient>
<linearGradient id="paint16_linear_3532_1514" x1="482.706" y1="67.5858" x2="110.026" y2="440.266" gradientUnits="userSpaceOnUse">
<stop stop-color="#EC5899"/>
<stop offset="0.2427" stop-color="#B752BB"/>
<stop offset="0.4852" stop-color="#8A4DD8"/>
<stop offset="0.6999" stop-color="#6949ED"/>
<stop offset="0.8789" stop-color="#5547FA"/>
<stop offset="1" stop-color="#4E46FF"/>
</linearGradient>
<clipPath id="clip0_3532_1514">
<rect width="1048.99" height="373.31" fill="white"/>
</clipPath>
</defs>
</svg>
